# xmcd
#
# Track frame offsets:
#	150
#	12469
#	26665
#	39050
#	53270
#	66487
#	81219
#	98790
#	111791
#	126527
#	137216
#	147602
#	160401
#	173639
#	183889
#	198997
#	210351
#	224293
#	235532
#	249279
#	261758
#	273053
#	286023
#	299237
#	308905
#	322439
#	334935
#
# Disc length: 4636 seconds
#
# Revision: 1
# Processed by: cddbd v1.5.2PL0 Copyright (c) Steve Scherf et al.
# Submitted via: audiograbber 1.83.01
#
DISCID=95121a1b
DTITLE=Various Artist - Big Box Of Blues - Cd4
DYEAR=1900
DGENRE=Blues
TTITLE0=Sonny Boy Williamson Ii -  From The Bottom 
TTITLE1=Howlin' Wolf  - Smoke Stack Lightning 
TTITLE2=Jimmy Witherspoon - Six Foot Two Blues  
TTITLE3=Willie Dixon - Walking The Blues 
TTITLE4=Amos Milburn  - Anybody's Blues 
TTITLE5=Muddy Waters - Rock Me 
TTITLE6=Cecil Gant  -  Little Baby, You're Running Wild 
TTITLE7=Howlin' Wolf  -I Asked For Water 
TTITLE8=Cecil Gant  - Special Delivery 
TTITLE9=Smiley Lewis - One Night 
TTITLE10=Dale Hawkins -  Susie Q 
TTITLE11=Wynonie Harris - Put It Back 
TTITLE12=Muddy Waters - I Just Want To Make Love With You 
TTITLE13=Jimmy Witherspoon - I Can't Make It With You 
TTITLE14=Eddie Boyd  - Third Degree 
TTITLE15=Cecil Gant  - I'm A Good Man Put A Poor Man 
TTITLE16=Jimmy Witherspoon - Just A Country Boy 
TTITLE17=Smokey Hogg  - When I've Been Drinkin' 
TTITLE18=Bobby "Blue" Bland - Farther Up The Road 
TTITLE19=Amos Milburn  - In The Middle Of The Night 
TTITLE20=J.b. Lenoir - Mamma Talk To Your Daughter 
TTITLE21=Muddy Waters - Just Make Love To Me 
TTITLE22=Wynonie Harris - Young Man's Blues 
TTITLE23=Percy Mayfield  - Louisiana 
TTITLE24=Amos Milburn  - Bad, Bad Whiskey 
TTITLE25=Bobby "Blue" Bland - It's My Life 
TTITLE26=Wynonie Harris - Luscious Woman 
EXTD=
EXTT0=
EXTT1=
EXTT2=
EXTT3=
EXTT4=
EXTT5=
EXTT6=
EXTT7=
EXTT8=
EXTT9=
EXTT10=
EXTT11=
EXTT12=
EXTT13=
EXTT14=
EXTT15=
EXTT16=
EXTT17=
EXTT18=
EXTT19=
EXTT20=
EXTT21=
EXTT22=
EXTT23=
EXTT24=
EXTT25=
EXTT26=
PLAYORDER=
